# xmcd
#
# Track frame offsets: 
#        150
#        17066
#        35430
#        59258
#        75729
#        87818
#        103588
#        124336
#        147363
#        160243
#        178732
#        197654
#
# Disc length: 2844 seconds
#
# Revision: 2
# Processed by: cddbd v1.5.2PL0 Copyright (c) Steve Scherf et al.
# Submitted via: ExactAudioCopy v1.0b1
#
DISCID=9d0b1a0c
DTITLE=Beaker Band, Norman - "Who's He Calling Me Him?"
DYEAR=1900
DGENRE=
TTITLE0=Girls Of The World
TTITLE1=You Can Talk
TTITLE2=Like I'm Not Your Man
TTITLE3=When The Fat Lady Sings
TTITLE4=Option On You Baby
TTITLE5=I Can Let Go Now
TTITLE6=Forever Blue
TTITLE7=The Guitar Don't Lie
TTITLE8=When Life Kicks You Around
TTITLE9=Love Isn't Everything
TTITLE10=Help Yourself
TTITLE11=Here's To The Next Time
EXTD=
EXTT0=
EXTT1=
EXTT2=
EXTT3=
EXTT4=
EXTT5=
EXTT6=
EXTT7=
EXTT8=
EXTT9=
EXTT10=
EXTT11=
PLAYORDER=
